<svg width="118" height="24" viewBox="0 0 118 24" fill="none" xmlns="http://www.w3.org/2000/svg">
<path d="M13.28 7.96L8.42 17.36V22H5V17.36L0.14 7.96H4.02L6.74 13.84L9.44 7.96H13.28ZM23.398 19.52H18.158L17.318 22H13.738L18.818 7.96H22.778L27.858 22H24.238L23.398 19.52ZM22.518 16.88L20.778 11.74L19.058 16.88H22.518ZM41.9641 22H38.5441L32.8241 13.34V22H29.4041V7.96H32.8241L38.5441 16.66V7.96H41.9641V22Z" fill="white"/>
<path d="M46.5 13.3125C45.292 13.3125 44.3125 14.292 44.3125 15.5C44.3125 16.708 45.292 17.6875 46.5 17.6875C47.708 17.6875 48.6875 16.708 48.6875 15.5C48.6875 14.292 47.708 13.3125 46.5 13.3125ZM47.6084 15.1938C47.6035 15.2144 47.5913 15.2446 47.5742 15.2808H47.5747L47.5728 15.2842C47.4736 15.4946 47.2158 15.9077 47.2158 15.9077C47.2158 15.9077 47.2153 15.9067 47.2144 15.9053L47.1387 16.0361H47.5024L46.8081 16.9551L46.9658 16.3301H46.6797L46.7793 15.9165C46.6987 15.9355 46.604 15.9624 46.4912 15.9985C46.4912 15.9985 46.3389 16.0874 46.0522 15.8276C46.0522 15.8276 45.8589 15.6582 45.9712 15.6157C46.019 15.5977 46.2026 15.5747 46.3472 15.5557C46.5425 15.5293 46.6626 15.5156 46.6626 15.5156C46.6626 15.5156 46.0605 15.5244 45.9175 15.5024C45.7744 15.48 45.5933 15.2432 45.5547 15.0347C45.5547 15.0347 45.4951 14.9204 45.6831 14.9746C45.8711 15.0288 46.6494 15.1855 46.6494 15.1855C46.6494 15.1855 45.6367 14.8765 45.5693 14.8013C45.502 14.7261 45.3711 14.3901 45.3882 14.1836C45.3882 14.1836 45.3955 14.1323 45.4487 14.146C45.4487 14.146 46.1973 14.4863 46.709 14.6729C47.2207 14.8579 47.6655 14.9526 47.6084 15.1938Z" fill="white"/>
<path d="M58.98 19.52H53.74L52.9 22H49.32L54.4 7.96H58.36L63.44 22H59.82L58.98 19.52ZM58.1 16.88L56.36 11.74L54.64 16.88H58.1ZM70.2461 7.96C71.7261 7.96 73.0194 8.25333 74.1261 8.84C75.2328 9.42667 76.0861 10.2533 76.6861 11.32C77.2994 12.3733 77.6061 13.5933 77.6061 14.98C77.6061 16.3533 77.2994 17.5733 76.6861 18.64C76.0861 19.7067 75.2261 20.5333 74.1061 21.12C72.9994 21.7067 71.7128 22 70.2461 22H64.9861V7.96H70.2461ZM70.0261 19.04C71.3194 19.04 72.3261 18.6867 73.0461 17.98C73.7661 17.2733 74.1261 16.2733 74.1261 14.98C74.1261 13.6867 73.7661 12.68 73.0461 11.96C72.3261 11.24 71.3194 10.88 70.0261 10.88H68.4061V19.04H70.0261ZM95.4173 7.96V22H91.9973V13.58L88.8573 22H86.0973L82.9373 13.56V22H79.5173V7.96H83.5573L87.4973 17.68L91.3973 7.96H95.4173ZM101.297 7.96V22H97.8767V7.96H101.297ZM116.335 22H112.915L107.195 13.34V22H103.775V7.96H107.195L112.915 16.66V7.96H116.335V22Z" fill="white"/>
</svg>
